<?xml version="1.0" standalone="no"?>
<!DOCTYPE svg PUBLIC "-//W3C//DTD SVG 20010904//EN"
 "http://www.w3.org/TR/2001/REC-SVG-20010904/DTD/svg10.dtd">
<svg version="1.0" xmlns="http://www.w3.org/2000/svg"
 width="256.000000pt" height="256.000000pt" viewBox="0 0 256.000000 256.000000"
 preserveAspectRatio="xMidYMid meet">
<metadata>
Created by potrace 1.11, written by Peter Selinger 2001-2013
</metadata>
<g transform="translate(0.000000,256.000000) scale(0.100000,-0.100000)"
fill="#000000" stroke="none">
<path d="M1180 2464 c-196 -38 -378 -136 -496 -267 -264 -292 -299 -722 -87
-1052 64 -98 170 -202 215 -210 75 -14 146 51 132 121 -12 63 89 333 149 396
14 15 37 30 51 34 33 8 76 -19 76 -47 0 -12 -20 -83 -44 -158 -24 -75 -51
-174 -61 -221 -9 -47 -19 -93 -21 -102 -5 -17 11 -18 239 -18 l244 0 17 58
c32 115 13 250 -50 358 -125 216 -125 278 1 436 44 55 97 137 129 200 l54 108
56 -60 c66 -72 131 -197 151 -295 44 -210 -17 -412 -176 -580 -68 -72 -79 -89
-79 -119 0 -92 79 -143 159 -101 39 20 159 152 199 218 84 139 123 283 124
447 0 126 -13 206 -52 307 -96 250 -296 438 -550 518 -71 23 -107 28 -220 30
-74 2 -146 1 -160 -1z m344 -247 c37 -14 73 -30 79 -36 15 -15 -35 -110 -103
-194 -57 -71 -87 -96 -225 -192 -220 -153 -363 -341 -413 -544 l-18 -75 -38
50 c-200 262 -166 638 78 862 72 65 152 111 246 139 65 20 92 23 200 20 104
-3 136 -8 194 -30z"/>
<path d="M1110 2173 c-66 -27 -112 -98 -112 -173 0 -141 157 -225 273 -147 54
36 79 82 79 144 0 110 -59 175 -164 180 -33 1 -68 0 -76 -4z"/>
<path d="M900 872 c-30 -24 -30 -70 0 -94 21 -17 51 -18 412 -18 l389 0 24 25
c32 31 32 58 -1 84 -26 20 -37 21 -414 21 -359 0 -389 -1 -410 -18z"/>
<path d="M904 682 c-33 -22 -34 -83 -1 -104 7 -4 191 -8 410 -8 384 0 398 1
417 20 24 24 25 48 4 78 l-15 22 -402 0 c-221 0 -407 -4 -413 -8z"/>
<path d="M895 480 c-24 -27 -22 -70 5 -92 21 -17 51 -18 412 -18 l389 0 24 25
c31 30 32 58 3 85 -21 19 -33 20 -418 20 -382 0 -398 -1 -415 -20z"/>
<path d="M1136 285 c-25 -25 -29 -54 -12 -80 16 -25 17 -25 185 -25 150 0 170
2 184 18 23 25 21 58 -3 82 -18 18 -33 20 -179 20 -129 0 -162 -3 -175 -15z"/>
</g>
</svg>
